<svg xmlns="http://www.w3.org/2000/svg">
  <defs>
    <symbol id="github" viewBox="0 0 24 24">
      <path fill="currentColor"
            d="M12 1A10.89 10.89 0 0 0 1 11.77A10.79 10.79 0 0 0 8.52 22c.55.1.75-.23.75-.52v-1.83c-3.06.65-3.71-1.44-3.71-1.44a2.86 2.86 0 0 0-1.22-1.58c-1-.66.08-.65.08-.65a2.31 2.31 0 0 1 1.68 1.11a2.37 2.37 0 0 0 3.2.89a2.33 2.33 0 0 1 .7-1.44c-2.44-.27-5-1.19-5-5.32a4.15 4.15 0 0 1 1.11-2.91a3.78 3.78 0 0 1 .11-2.84s.93-.29 3 1.1a10.7 10.7 0 0 1 5.5 0c2.1-1.39 3-1.1 3-1.1a3.78 3.78 0 0 1 .11 2.84A4.15 4.15 0 0 1 19 11.2c0 4.14-2.58 5.05-5 5.32a2.5 2.5 0 0 1 .75 2v2.95c0 .35.2.63.75.52A10.8 10.8 0 0 0 23 11.77A10.89 10.89 0 0 0 12 1"/>
    </symbol>
    <symbol id="auto" viewBox="0 0 24 24">
      <path fill="currentColor"
            d="M12.83 13.45a1 1 0 0 0-1.66 0l-4 6a1 1 0 0 0 0 1A1 1 0 0 0 8 21h8a1 1 0 0 0 .88-.53 1 1 0 0 0-.05-1ZM9.87 19 12 15.8l2.13 3.2ZM19 3H5a3 3 0 0 0-3 3v9a3 3 0 0 0 3 3h.85a1 1 0 1 0 0-2H5a1 1 0 0 1-1-1V6a1 1 0 0 1 1-1h14a1 1 0 0 1 1 1v9a1 1 0 0 1-1 1h-.85a1 1 0 0 0 0 2H19a3 3 0 0 0 3-3V6a3 3 0 0 0-3-3"/>
    </symbol>
    <symbol id="sun" viewBox="0 0 24 24">
      <path fill="currentColor"
            d="m5.64 17-.71.71a1 1 0 0 0 0 1.41 1 1 0 0 0 1.41 0l.71-.71A1 1 0 0 0 5.64 17M5 12a1 1 0 0 0-1-1H3a1 1 0 0 0 0 2h1a1 1 0 0 0 1-1m7-7a1 1 0 0 0 1-1V3a1 1 0 0 0-2 0v1a1 1 0 0 0 1 1M5.64 7.05a1 1 0 0 0 .7.29 1 1 0 0 0 .71-.29 1 1 0 0 0 0-1.41l-.71-.71a1 1 0 0 0-1.41 1.41Zm12 .29a1 1 0 0 0 .7-.29l.71-.71a1 1 0 1 0-1.41-1.41l-.64.71a1 1 0 0 0 0 1.41 1 1 0 0 0 .66.29ZM21 11h-1a1 1 0 0 0 0 2h1a1 1 0 0 0 0-2m-9 8a1 1 0 0 0-1 1v1a1 1 0 0 0 2 0v-1a1 1 0 0 0-1-1m6.36-2A1 1 0 0 0 17 18.36l.71.71a1 1 0 0 0 1.41 0 1 1 0 0 0 0-1.41ZM12 6.5a5.5 5.5 0 1 0 5.5 5.5A5.51 5.51 0 0 0 12 6.5m0 9a3.5 3.5 0 1 1 3.5-3.5 3.5 3.5 0 0 1-3.5 3.5"/>
    </symbol>
    <symbol id="moon" viewBox="0 0 24 24">
      <path fill="currentColor"
            d="M21.64 13a1 1 0 0 0-1.05-.14 8.05 8.05 0 0 1-3.37.73 8.15 8.15 0 0 1-8.14-8.1 8.59 8.59 0 0 1 .25-2A1 1 0 0 0 8 2.36a10.14 10.14 0 1 0 14 11.69 1 1 0 0 0-.36-1.05m-9.5 6.69A8.14 8.14 0 0 1 7.08 5.22v.27a10.15 10.15 0 0 0 10.14 10.14 9.79 9.79 0 0 0 2.1-.22 8.11 8.11 0 0 1-7.18 4.32Z"/>
      />
    </symbol>
    <symbol id="angle-left" viewBox="0 0 24 24">
      <path fill="currentColor"
            d="m8.5 12.8 5.7 5.6c.4.4 1 .4 1.4 0 .4-.4.4-1 0-1.4l-4.9-5 4.9-5c.4-.4.4-1 0-1.4-.2-.2-.4-.3-.7-.3-.3 0-.5.1-.7.3l-5.7 5.6c-.4.5-.4 1.1 0 1.6 0-.1 0-.1 0 0"/>
    </symbol>
    <symbol id="angle-right" viewBox="0 0 24 24">
      <path fill="currentColor"
            d="M15.54 11.29 9.88 5.64a1 1 0 0 0-1.42 0 1 1 0 0 0 0 1.41l4.95 5L8.46 17a1 1 0 0 0 0 1.41 1 1 0 0 0 .71.3 1 1 0 0 0 .71-.3l5.66-5.65a1 1 0 0 0 0-1.47"/>
    </symbol>
    <symbol id="angle-down" viewBox="0 0 24 24">
      <path
        fill="currentColor"
        d="M17 9.17a1 1 0 0 0-1.41 0L12 12.71L8.46 9.17a1 1 0 0 0-1.41 0a1 1 0 0 0 0 1.42l4.24 4.24a1 1 0 0 0 1.42 0L17 10.59a1 1 0 0 0 0-1.42"/>
    </symbol>
    <symbol id="home" viewBox="0 0 24 24">
      <path fill="currentColor"
            d="m20 8-6-5.26a3 3 0 0 0-4 0L4 8a3 3 0 0 0-1 2.26V19a3 3 0 0 0 3 3h12a3 3 0 0 0 3-3v-8.75A3 3 0 0 0 20 8m-6 12h-4v-5a1 1 0 0 1 1-1h2a1 1 0 0 1 1 1Zm5-1a1 1 0 0 1-1 1h-2v-5a3 3 0 0 0-3-3h-2a3 3 0 0 0-3 3v5H6a1 1 0 0 1-1-1v-8.75a1 1 0 0 1 .34-.75l6-5.25a1 1 0 0 1 1.32 0l6 5.25a1 1 0 0 1 .34.75Z"/>
    </symbol>
    <symbol id="ellipsis" viewBox="0 0 24 24">
      <path fill="currentColor"
            d="M12 10a2 2 0 1 0 2 2 2 2 0 0 0-2-2m-7 0a2 2 0 1 0 2 2 2 2 0 0 0-2-2m14 0a2 2 0 1 0 2 2 2 2 0 0 0-2-2"/>
    </symbol>
    <symbol id="menu"
            fill="none" stroke="currentColor" stroke-linecap="round" stroke-linejoin="round"
            stroke-width="2"
            viewBox="0 0 24 24">
      <path d="M4 12h16M4 6h16M4 18h16"/>
    </symbol>
    <symbol id="close" viewBox="0 0 24 24">
      <path fill="currentColor"
            d="m13.41 12 4.3-4.29a1 1 0 1 0-1.42-1.42L12 10.59l-4.29-4.3a1 1 0 0 0-1.42 1.42l4.3 4.29-4.3 4.29a1 1 0 0 0 0 1.42 1 1 0 0 0 1.42 0l4.29-4.3 4.29 4.3a1 1 0 0 0 1.42 0 1 1 0 0 0 0-1.42Z"/>
    </symbol>
    <symbol id="external-link" viewBox="0 0 24 24">
      <path fill="currentColor"
            d="M18 10.82a1 1 0 0 0-1 1V19a1 1 0 0 1-1 1H5a1 1 0 0 1-1-1V8a1 1 0 0 1 1-1h7.18a1 1 0 0 0 0-2H5a3 3 0 0 0-3 3v11a3 3 0 0 0 3 3h11a3 3 0 0 0 3-3v-7.18a1 1 0 0 0-1-1m3.92-8.2a1 1 0 0 0-.54-.54A1 1 0 0 0 21 2h-6a1 1 0 0 0 0 2h3.59L8.29 14.29a1 1 0 0 0 0 1.42 1 1 0 0 0 1.42 0L20 5.41V9a1 1 0 0 0 2 0V3a1 1 0 0 0-.08-.38"/>
    </symbol>
    <symbol id="clipboard" viewBox="0 0 24 24">
      <g fill="none" stroke="currentColor" stroke-linecap="round" stroke-linejoin="round"
         stroke-width="2">
        <path d="M9 5H7a2 2 0 0 0-2 2v12a2 2 0 0 0 2 2h10a2 2 0 0 0 2-2V7a2 2 0 0 0-2-2h-2"/>
        <path d="M9 5a2 2 0 0 1 2-2h2a2 2 0 0 1 2 2v0a2 2 0 0 1-2 2h-2a2 2 0 0 1-2-2"/>
      </g>
    </symbol>
    <symbol id="clipboard-check" viewBox="0 0 24 24">
      <g fill="none" stroke="currentColor" stroke-linecap="round" stroke-linejoin="round"
         stroke-width="2">
        <path d="M9 5H7a2 2 0 0 0-2 2v12a2 2 0 0 0 2 2h10a2 2 0 0 0 2-2V7a2 2 0 0 0-2-2h-2"/>
        <path d="M9 5a2 2 0 0 1 2-2h2a2 2 0 0 1 2 2v0a2 2 0 0 1-2 2h-2a2 2 0 0 1-2-2m0 9l2 2l4-4"/>
      </g>
    </symbol>
    <symbol id="email" viewBox="0 0 24 24">
      <path fill="currentColor"
            d="M19 4H5a3 3 0 0 0-3 3v10a3 3 0 0 0 3 3h14a3 3 0 0 0 3-3V7a3 3 0 0 0-3-3m-.41 2-5.88 5.88a1 1 0 0 1-1.42 0L5.41 6ZM20 17a1 1 0 0 1-1 1H5a1 1 0 0 1-1-1V7.41l5.88 5.88a3 3 0 0 0 4.24 0L20 7.41Z"/>
    </symbol>
    <symbol id="hash" viewBox="0 0 24 24">
      <path fill="none" stroke="currentColor" stroke-linecap="round" stroke-linejoin="round"
            stroke-width="2"
            d="M5 9h14M5 15h14M11 4L7 20M17 4l-4 16"/>
    </symbol>
    <symbol id="plus" viewBox="0 0 24 24">
      <path fill="currentColor"
            d="M19 11h-6V5a1 1 0 0 0-2 0v6H5a1 1 0 0 0 0 2h6v6a1 1 0 0 0 2 0v-6h6a1 1 0 0 0 0-2"/>
    </symbol>
    <symbol id="status" viewBox="0 0 24 24">
      <path fill="currentColor"
            d="M21 20h-1V5a1 1 0 0 0-2 0v15h-2v-7a1 1 0 0 0-2 0v7h-2V9a1 1 0 0 0-2 0v11H8v-3a1 1 0 0 0-2 0v3H4V3a1 1 0 0 0-2 0v18a1 1 0 0 0 1 1h18a1 1 0 0 0 0-2"/>
    </symbol>
    <symbol id="search" viewBox="0 0 24 24">
      <path fill="currentColor"
            d="M21.71 20.29 18 16.61A9 9 0 1 0 16.61 18l3.68 3.68a1 1 0 0 0 1.42 0 1 1 0 0 0 0-1.39M11 18a7 7 0 1 1 7-7 7 7 0 0 1-7 7"/>
    </symbol>
    <symbol id="question" viewBox="0 0 24 24">
      <path fill="currentColor"
            d="M11.29 15.29a1.58 1.58 0 0 0-.12.15.76.76 0 0 0-.09.18.64.64 0 0 0-.06.18 1.36 1.36 0 0 0 0 .2.84.84 0 0 0 .08.38.9.9 0 0 0 .54.54.94.94 0 0 0 .76 0 .9.9 0 0 0 .54-.54A1 1 0 0 0 13 16a1 1 0 0 0-.29-.71 1 1 0 0 0-1.42 0M12 2a10 10 0 1 0 10 10A10 10 0 0 0 12 2m0 18a8 8 0 1 1 8-8 8 8 0 0 1-8 8m0-13a3 3 0 0 0-2.6 1.5 1 1 0 1 0 1.73 1A1 1 0 0 1 12 9a1 1 0 0 1 0 2 1 1 0 0 0-1 1v1a1 1 0 0 0 2 0v-.18A3 3 0 0 0 12 7"/>
    </symbol>
    <symbol id="info" viewBox="0 0 24 24">
      <path fill="currentColor"
            d="M12 2a10 10 0 1 0 10 10A10.011 10.011 0 0 0 12 2m0 18a8 8 0 1 1 8-8 8.01 8.01 0 0 1-8 8m0-8.5a1 1 0 0 0-1 1v3a1 1 0 0 0 2 0v-3a1 1 0 0 0-1-1m0-4a1.25 1.25 0 1 0 1.25 1.25A1.25 1.25 0 0 0 12 7.5"/>
    </symbol>
    <symbol id="check" viewBox="0 0 24 24">
      <path fill="currentColor"
            d="M18.71 7.21a1 1 0 0 0-1.42 0l-7.45 7.46-3.13-3.14A1 1 0 1 0 5.29 13l3.84 3.84a1 1 0 0 0 1.42 0l8.16-8.16a1 1 0 0 0 0-1.47"/>
    </symbol>
    <symbol id="dot" viewBox="0 0 24 24">
      <circle cx="12" cy="12" r="4" fill="currentColor"/>
    </symbol>
    <symbol id="github-WARNING" viewBox="0 0 16 16">
      <path fill="currentColor"
            d="M6.457 1.047c.659-1.234 2.427-1.234 3.086 0l6.082 11.378A1.75 1.75 0 0 1 14.082 15H1.918a1.75 1.75 0 0 1-1.543-2.575Zm1.763.707a.25.25 0 0 0-.44 0L1.698 13.132a.25.25 0 0 0 .22.368h12.164a.25.25 0 0 0 .22-.368Zm.53 3.996v2.5a.75.75 0 0 1-1.5 0v-2.5a.75.75 0 0 1 1.5 0ZM9 11a1 1 0 1 1-2 0 1 1 0 0 1 2 0Z"/>
    </symbol>
    <symbol id="github-CAUTION" viewBox="0 0 16 16">
      <path fill="currentColor"
            d="M4.47.22A.749.749 0 0 1 5 0h6c.199 0 .389.079.53.22l4.25 4.25c.141.14.22.331.22.53v6a.749.749 0 0 1-.22.53l-4.25 4.25A.749.749 0 0 1 11 16H5a.749.749 0 0 1-.53-.22L.22 11.53A.749.749 0 0 1 0 11V5c0-.199.079-.389.22-.53Zm.84 1.28L1.5 5.31v5.38l3.81 3.81h5.38l3.81-3.81V5.31L10.69 1.5ZM8 4a.75.75 0 0 1 .75.75v3.5a.75.75 0 0 1-1.5 0v-3.5A.75.75 0 0 1 8 4Zm0 8a1 1 0 1 1 0-2 1 1 0 0 1 0 2Z"/>
    </symbol>
    <symbol id="github-TIP" viewBox="0 0 16 16">
      <path fill="currentColor"
            d="M8 1.5c-2.363 0-4 1.69-4 3.75 0 .984.424 1.625.984 2.304l.214.253c.223.264.47.556.673.848.284.411.537.896.621 1.49a.75.75 0 0 1-1.484.211c-.04-.282-.163-.547-.37-.847a8.456 8.456 0 0 0-.542-.68c-.084-.1-.173-.205-.268-.32C3.201 7.75 2.5 6.766 2.5 5.25 2.5 2.31 4.863 0 8 0s5.5 2.31 5.5 5.25c0 1.516-.701 2.5-1.328 3.259-.095.115-.184.22-.268.319-.207.245-.383.453-.541.681-.208.3-.33.565-.37.847a.751.751 0 0 1-1.485-.212c.084-.593.337-1.078.621-1.489.203-.292.45-.584.673-.848.075-.088.147-.173.213-.253.561-.679.985-1.32.985-2.304 0-2.06-1.637-3.75-4-3.75ZM5.75 12h4.5a.75.75 0 0 1 0 1.5h-4.5a.75.75 0 0 1 0-1.5ZM6 15.25a.75.75 0 0 1 .75-.75h2.5a.75.75 0 0 1 0 1.5h-2.5a.75.75 0 0 1-.75-.75Z"/>
    </symbol>
    <symbol id="github-NOTE" viewBox="0 0 16 16">
      <path fill="currentColor"
            d="M0 8a8 8 0 1 1 16 0A8 8 0 0 1 0 8Zm8-6.5a6.5 6.5 0 1 0 0 13 6.5 6.5 0 0 0 0-13ZM6.5 7.75A.75.75 0 0 1 7.25 7h1a.75.75 0 0 1 .75.75v2.75h.25a.75.75 0 0 1 0 1.5h-2a.75.75 0 0 1 0-1.5h.25v-2h-.25a.75.75 0 0 1-.75-.75ZM8 6a1 1 0 1 1 0-2 1 1 0 0 1 0 2Z"/>
    </symbol>
    <symbol id="github-IMPORTANT" viewBox="0 0 16 16">
      <path fill="currentColor"
            d="M0 1.75C0 .784.784 0 1.75 0h12.5C15.216 0 16 .784 16 1.75v9.5A1.75 1.75 0 0 1 14.25 13H8.06l-2.573 2.573A1.458 1.458 0 0 1 3 14.543V13H1.75A1.75 1.75 0 0 1 0 11.25Zm1.75-.25a.25.25 0 0 0-.25.25v9.5c0 .138.112.25.25.25h2a.75.75 0 0 1 .75.75v2.19l2.72-2.72a.749.749 0 0 1 .53-.22h6.5a.25.25 0 0 0 .25-.25v-9.5a.25.25 0 0 0-.25-.25Zm7 2.25v2.5a.75.75 0 0 1-1.5 0v-2.5a.75.75 0 0 1 1.5 0ZM9 9a1 1 0 1 1-2 0 1 1 0 0 1 2 0Z"/>
    </symbol>
    <symbol id="stackblitz" viewBox="0 0 24 24">
      <path fill="currentColor"
            d="M10.797 14.182H3.635L16.728 0l-3.525 9.818h7.162L7.272 24l3.524-9.818Z"/>
    </symbol>
    <symbol id="heart" viewBox="0 0 24 24">
      <path fill="none" stroke="currentColor" stroke-linecap="round" stroke-linejoin="round"
            stroke-width="2"
            d="M19.5 12.572L12 20l-7.5-7.428A5 5 0 1 1 12 6.006a5 5 0 1 1 7.5 6.572"/>
    </symbol>
    <symbol id="heart-broken" viewBox="0 0 24 24">
      <g fill="none" stroke="currentColor" stroke-linecap="round" stroke-linejoin="round"
         stroke-width="2">
        <path d="M19.5 12.572L12 20l-7.5-7.428A5 5 0 1 1 12 6.006a5 5 0 1 1 7.5 6.572"/>
        <path d="m12 6l-2 4l4 3l-2 4v3"/>
      </g>
    </symbol>
  </defs>
</svg>
